<?xml version="1.0"?>
<svg width="1280" height="950" xmlns="http://www.w3.org/2000/svg" xmlns:svg="http://www.w3.org/2000/svg" preserveAspectRatio="xMidYMid meet">
 <metadata>Created by potrace 1.15, written by Peter Selinger 2001-2017</metadata>
 <defs>
  <linearGradient id="svg_9" x1="0" x2="1" y1="0" y2="0">
   <stop offset="0.487" stop-color="#FF0000"/>
   <stop offset="0.64325" stop-color="#000107" stop-opacity="0.99609"/>
  </linearGradient>
  <linearGradient id="svg_15" x1="0" x2="1" y1="0" y2="0">
   <stop offset="0.20575" stop-color="#000000"/>
   <stop offset="0.737" stop-color="#f2e600" stop-opacity="0.99609"/>
   <stop offset="0.98309" stop-color="#f2e600" stop-opacity="0.99609"/>
  </linearGradient>
  <filter height="200%" id="svg_12_blur" width="200%" x="-50%" y="-50%">
   <feGaussianBlur stdDeviation="4.3"/>
  </filter>
 </defs>
 <g class="layer">
  <title>Layer 1</title>
  <g fill="#000000" id="svg_1" transform="translate(0 950) scale(0.1 -0.1)">
   <path d="m850,9299c-45,-6 -101,-22 -139,-39c-35,-17 -77,-30 -93,-30c-17,0 -46,-8 -66,-17c-47,-22 -119,-94 -127,-126c-5,-19 -15,-26 -44,-31c-63,-10 -86,-35 -100,-113c-7,-37 -26,-108 -42,-157c-26,-80 -29,-101 -29,-220c0,-140 18,-303 45,-406c9,-35 50,-132 91,-216c83,-168 132,-228 232,-278c75,-38 78,-37 85,42c6,70 23,122 40,122c37,0 127,-94 127,-132c0,-19 -359,-381 -419,-422c-62,-43 -119,-112 -155,-186c-26,-55 -32,-79 -34,-156c-8,-213 73,-366 290,-546l105,-87l21,-73c11,-40 25,-99 31,-131c14,-77 47,-122 189,-258c171,-163 226,-232 242,-298c21,-91 53,-110 217,-130c102,-13 190,0 256,37c105,60 238,163 341,264l109,107l73,-45c160,-100 326,-151 521,-161l122,-6l-19,-25c-11,-14 -20,-32 -20,-41c0,-17 121,-141 138,-141c5,0 26,7 45,15c20,8 51,15 69,15c32,0 33,-1 34,-43c0,-23 6,-53 13,-66c18,-32 90,-61 171,-68l69,-6l6,-41c4,-23 15,-56 26,-74c13,-24 17,-44 13,-75c-3,-24 1,-62 10,-90c13,-43 13,-52 0,-84c-18,-42 -14,-69 31,-183c19,-47 48,-140 64,-207c36,-140 89,-317 166,-553c60,-183 75,-253 75,-347c0,-58 -3,-66 -35,-102c-19,-21 -42,-55 -51,-76c-21,-51 -30,-192 -15,-238c7,-20 50,-91 96,-156c73,-103 83,-124 80,-153c-26,-196 -40,-279 -61,-368c-29,-121 -127,-696 -144,-845c-14,-126 -2,-217 33,-253c27,-27 207,-78 368,-106c51,-9 95,-18 97,-21c3,-3 1,-68 -5,-146l-10,-140l-39,-40l-38,-39l-34,33l-34,32l-33,-39c-27,-33 -34,-49 -37,-99c-4,-48 -9,-64 -27,-76c-12,-9 -47,-36 -79,-59c-72,-55 -101,-70 -242,-122c-63,-24 -140,-55 -170,-71c-100,-49 -173,-155 -156,-224c5,-19 19,-32 49,-45c38,-17 74,-19 348,-21l307,-2l33,25c61,45 73,48 221,48c145,1 508,16 513,22c4,4 29,423 28,485c0,49 -2,55 -45,95l-46,43l-13,105c-18,138 -18,256 0,298c11,27 30,41 95,74c139,70 177,80 306,79c63,-1 138,3 166,9l51,11l-19,107c-61,346 -134,656 -193,817c-34,95 -37,111 -50,315c-22,319 -31,385 -90,620c-113,452 -125,569 -128,1206l-2,351l47,94c91,184 277,462 338,508c32,23 32,24 29,99c-4,69 -2,76 16,81c11,4 66,43 122,88c111,89 205,147 304,190c35,15 82,41 104,58c59,47 88,61 220,106c137,46 277,112 415,194c113,68 218,121 320,164c86,36 214,128 434,315c82,70 181,149 222,176c65,44 299,180 310,180c10,0 2,-172 -11,-265c-19,-125 -30,-375 -21,-439c5,-33 17,-57 37,-78c16,-17 29,-41 29,-53c0,-13 8,-26 18,-31c9,-4 82,-9 162,-11c121,-4 160,-1 237,16l91,21l44,-24c23,-14 70,-29 102,-35c65,-12 384,-13 562,-3l111,7l6,-160c3,-88 13,-194 21,-236c24,-122 29,-269 17,-476c-9,-143 -16,-200 -29,-225c-12,-24 -18,-68 -22,-163c-7,-174 -44,-305 -107,-383c-40,-49 -47,-65 -55,-117c-2,-11 -16,-26 -31,-33c-16,-8 -31,-20 -34,-28c-3,-8 -40,-43 -83,-78c-45,-37 -117,-114 -170,-180c-60,-76 -99,-116 -111,-116c-45,0 -221,-118 -284,-190c-11,-12 -65,-57 -120,-98c-171,-130 -335,-263 -335,-271c0,-9 -204,-153 -258,-182c-38,-21 -72,-93 -113,-240c-17,-63 -42,-140 -55,-171c-20,-47 -24,-75 -24,-152c0,-84 -3,-101 -30,-158c-25,-51 -30,-76 -30,-134c0,-44 -22,-192 -59,-390c-33,-175 -71,-386 -86,-469c-33,-183 -90,-411 -144,-567l-39,-117l86,-20c48,-11 106,-23 130,-27c46,-7 47,-8 32,-50c-7,-19 -29,-40 -61,-59c-72,-42 -163,-145 -206,-232c-40,-80 -43,-117 -18,-181l16,-39l212,-8c319,-12 374,-10 432,12c75,29 193,101 207,126c9,16 12,92 13,267l0,245l48,133c26,74 47,147 47,164c0,17 -7,78 -16,136l-15,106l42,90c38,78 44,101 50,185c8,108 17,151 31,151c21,0 145,131 229,243c99,131 116,161 149,262c13,38 33,93 46,120c21,50 24,51 106,83c46,17 106,46 133,64c63,42 158,138 203,205c19,29 42,53 51,52c9,0 63,-4 121,-9c99,-8 112,-11 222,-64c64,-31 127,-56 140,-56c27,0 75,37 189,147c90,86 105,89 199,41c62,-32 66,-33 208,-35l144,-2l57,-78c72,-97 136,-157 243,-227c139,-90 281,-153 417,-185c74,-18 76,-19 83,-54c28,-134 195,-317 443,-484c33,-23 89,-74 125,-114c36,-41 143,-153 238,-251l173,-176l-12,-125c-12,-120 -11,-126 9,-158c17,-28 20,-50 20,-124c0,-96 9,-131 48,-182c29,-38 98,-56 178,-47l53,6l7,-38c35,-193 240,-336 482,-336c79,0 155,26 173,60c19,35 -7,147 -44,192c-7,8 -20,39 -29,69c-10,30 -40,100 -68,155c-47,95 -60,111 -208,261l-158,160l-35,145c-55,222 -109,655 -95,753c12,79 3,167 -21,221c-11,26 -73,99 -163,192c-113,117 -177,195 -298,364c-339,474 -362,502 -474,590c-128,98 -201,141 -289,170c-70,23 -67,20 -82,92c-1,9 1,52 6,94c7,60 5,82 -6,105c-15,28 -21,89 -8,89c3,0 35,-16 70,-35c35,-19 74,-35 87,-35c53,0 108,73 151,201c14,41 38,87 54,104c103,108 149,362 137,757c-4,129 -2,209 4,213c14,9 47,122 54,190c8,69 -3,180 -35,349c-22,117 -23,120 -73,177c-28,32 -103,118 -167,191c-132,151 -210,226 -344,333c-94,75 -105,89 -105,130c0,20 6,25 38,30c124,21 211,66 262,136c38,53 70,155 70,224c0,44 10,72 60,174c71,145 72,150 29,351c-17,80 -33,171 -36,202c-5,52 -8,57 -33,63c-16,3 -57,26 -92,51c-68,48 -139,74 -200,74c-29,0 -43,6 -61,27c-30,36 -67,71 -99,94l-26,19l-12,-50c-14,-58 -2,-57 -134,-9c-44,16 -88,29 -97,29c-44,0 -203,-105 -282,-186c-41,-43 -77,-126 -77,-179c0,-22 -20,-74 -52,-140l-52,-105l26,-54c26,-53 27,-57 12,-92c-9,-21 -15,-62 -14,-98c1,-33 -1,-104 -5,-156c-7,-91 -6,-98 24,-169c17,-41 31,-75 31,-76c0,-1 -51,0 -112,2c-62,3 -162,0 -221,-6c-106,-11 -108,-10 -145,13c-67,44 -158,69 -257,70c-81,1 -98,-2 -165,-31c-41,-18 -120,-58 -175,-88l-99,-55l-102,10c-112,10 -289,-1 -407,-26c-38,-8 -74,-14 -81,-14c-7,0 -25,33 -41,73c-15,39 -45,107 -66,149c-36,72 -39,85 -45,193c-4,63 -4,115 0,115c4,0 94,14 199,31c287,46 313,64 311,224c-2,83 -6,101 -52,220c-37,93 -47,132 -39,137c7,4 125,8 263,8c222,0 257,2 307,19c184,64 347,181 347,250c0,50 -28,88 -100,136c-195,130 -479,174 -738,114c-46,-10 -92,-24 -103,-30c-26,-14 -319,-50 -347,-42l-22,5l20,25c26,34 25,75 -2,100c-45,40 -49,39 -100,-18l-49,-54l8,50c4,28 8,68 8,90c0,34 -3,40 -23,43c-12,2 -36,-4 -54,-12c-17,-9 -49,-16 -70,-16c-37,0 -40,-2 -63,-53c-20,-43 -44,-176 -45,-244c0,-6 -25,-19 -56,-28c-82,-24 -164,-62 -206,-95c-23,-19 -149,-73 -346,-149c-171,-66 -319,-124 -330,-130c-10,-5 -32,-35 -48,-66c-28,-54 -30,-55 -72,-55c-59,0 -75,-11 -111,-74c-49,-86 -48,-85 -152,-36c-90,43 -91,43 -172,37c-141,-11 -374,-86 -436,-140c-46,-39 -108,-67 -152,-67c-20,0 -62,9 -95,21c-52,18 -73,20 -174,14c-144,-8 -317,-31 -371,-50c-55,-20 -88,-19 -185,5c-76,18 -100,18 -350,10c-148,-5 -286,-14 -307,-20c-21,-6 -52,-27 -69,-46c-17,-18 -39,-34 -49,-34c-10,0 -23,-8 -28,-19c-6,-10 -34,-28 -63,-41c-45,-19 -63,-22 -128,-16c-101,8 -145,22 -174,53c-20,21 -28,24 -39,14c-12,-10 -22,1 -57,66c-55,99 -162,209 -246,251c-51,26 -62,36 -66,60l-4,29l95,7c134,8 307,7 366,-4c28,-5 120,-16 205,-25c85,-8 200,-20 255,-26c116,-13 271,-5 347,18c29,8 97,35 152,60c55,24 127,51 160,58c120,28 333,65 457,81l127,16l73,-27c99,-35 254,-75 294,-75c18,0 63,14 99,31c58,27 74,30 119,25c65,-8 104,14 147,81c57,89 31,150 -100,238c-54,36 -57,37 -130,32c-41,-3 -145,-13 -231,-23c-169,-20 -123,-21 -694,20c-586,43 -888,44 -1012,4c-58,-19 -89,-22 -208,-22c-208,2 -286,16 -460,84c-162,62 -221,81 -336,105c-85,18 -267,21 -319,5c-19,-6 -78,-17 -131,-25c-125,-18 -199,-47 -262,-101c-75,-64 -110,-78 -197,-78c-64,0 -80,3 -107,23c-48,36 -47,47 1,71c24,11 51,29 60,39c22,24 17,35 -75,157l-68,90l11,73c10,68 13,74 44,89c35,16 41,26 23,37c-5,4 -21,32 -35,62c-19,44 -54,85 -157,188c-110,109 -145,138 -212,172c-150,77 -287,102 -445,82z" fill="url(#svg_9)" id="svg_2"/>
  </g>
  <text fill="#7f7f7f" filter="url(#svg_12_blur)" font-family="Fantasy" font-size="196" font-style="normal" font-weight="normal" id="svg_12" stroke="#ef1515" stroke-dasharray="null" stroke-linecap="null" stroke-linejoin="null" stroke-width="0" text-anchor="middle" x="475" xml:space="preserve" y="685">Fight!</text>
  <text fill="url(#svg_15)" font-family="Fantasy" font-size="196" font-style="normal" font-weight="normal" id="svg_16" stroke="#ef1515" stroke-dasharray="null" stroke-linecap="null" stroke-linejoin="null" stroke-width="0" text-anchor="middle" x="472" xml:space="preserve" y="689">Fight!</text>
 </g>
</svg>